<svg width="4125" height="700" viewBox="0 0 4125 700" fill="none" xmlns="http://www.w3.org/2000/svg">
<path d="M914.45 539.4C888.783 539.4 866.233 536.467 846.8 530.6C827.733 524.733 811.783 516.3 798.95 505.3C786.117 494.3 776.583 481.1 770.35 465.7C764.483 449.933 761.917 432.517 762.65 413.45L845.15 395.3C845.883 412.167 849.367 425.917 855.6 436.55C862.2 446.817 871 454.517 882 459.65C893 464.417 905.283 466.8 918.85 466.8C929.85 466.8 939.567 465.517 948 462.95C956.433 460.017 963.033 456.167 967.8 451.4C972.933 446.267 975.5 440.4 975.5 433.8C975.5 425 972.2 417.85 965.6 412.35C959 406.483 949.833 401.533 938.1 397.5C926.733 393.467 913.717 389.433 899.05 385.4C883.283 381 867.517 376.233 851.75 371.1C836.35 365.6 822.233 358.817 809.4 350.75C796.567 342.683 786.117 332.233 778.05 319.4C770.35 306.567 766.5 290.617 766.5 271.55C766.5 248.083 772.367 228.1 784.1 211.6C796.2 195.1 812.7 182.633 833.6 174.2C854.867 165.4 879.067 161 906.2 161C934.8 161 960.283 165.95 982.65 175.85C1005.02 185.383 1022.25 199.5 1034.35 218.2C1046.45 236.9 1051.22 259.817 1048.65 286.95L967.25 300.15C967.617 289.15 966.517 279.433 963.95 271C961.383 262.567 957.35 255.417 951.85 249.55C946.717 243.683 940.117 239.283 932.05 236.35C923.983 233.05 914.45 231.4 903.45 231.4C892.083 231.4 882.55 232.867 874.85 235.8C867.517 238.733 861.833 242.767 857.8 247.9C854.133 253.033 852.3 258.9 852.3 265.5C852.3 273.2 855.233 279.617 861.1 284.75C866.967 289.883 875.4 294.467 886.4 298.5C897.4 302.167 910.417 306.017 925.45 310.05C941.217 314.45 956.983 319.4 972.75 324.9C988.883 330.033 1003.73 337 1017.3 345.8C1030.87 354.233 1041.68 365.233 1049.75 378.8C1058.18 392.367 1062.4 409.6 1062.4 430.5C1062.4 454.7 1055.98 474.867 1043.15 491C1030.68 507.133 1013.27 519.233 990.9 527.3C968.9 535.367 943.417 539.4 914.45 539.4Z" fill="#1C1F23"/>
<path d="M1093.73 531.7V168.7H1182.83V531.7H1093.73ZM1109.13 531.7V455.8H1320.88V531.7H1109.13Z" fill="#1C1F23"/>
<path d="M1346.71 531.7V168.7H1436.36V531.7H1346.71Z" fill="#1C1F23"/>
<path d="M1646 539.4C1615.2 539.4 1588.8 534.45 1566.8 524.55C1544.8 514.65 1526.83 500.9 1512.9 483.3C1498.96 465.7 1488.7 445.717 1482.1 423.35C1475.86 400.617 1472.75 376.6 1472.75 351.3C1472.75 325.267 1476.05 300.7 1482.65 277.6C1489.25 254.5 1499.33 234.333 1512.9 217.1C1526.83 199.5 1544.61 185.75 1566.25 175.85C1587.88 165.95 1613.91 161 1644.35 161C1670.75 161 1693.48 164.85 1712.55 172.55C1731.61 179.883 1746.83 190.15 1758.2 203.35C1769.93 216.183 1778 231.033 1782.4 247.9C1786.8 264.767 1787.9 282.367 1785.7 300.7L1703.75 310.6C1704.48 294.833 1702.46 281.267 1697.7 269.9C1693.3 258.533 1686.33 249.733 1676.8 243.5C1667.63 237.267 1655.9 234.15 1641.6 234.15C1629.5 234.15 1618.68 236.533 1609.15 241.3C1599.98 246.067 1592.1 253.217 1585.5 262.75C1579.26 272.283 1574.5 284.2 1571.2 298.5C1567.9 312.433 1566.25 328.75 1566.25 347.45C1566.25 371.65 1569.18 392.733 1575.05 410.7C1580.91 428.3 1589.9 442.05 1602 451.95C1614.1 461.483 1629.31 466.25 1647.65 466.25C1664.51 466.25 1677.71 462.4 1687.25 454.7C1697.15 447 1704.11 436.367 1708.15 422.8C1712.18 409.233 1713.46 394.017 1712 377.15L1796.15 384.3C1797.98 404.467 1796.51 423.9 1791.75 442.6C1787.35 460.933 1779.1 477.433 1767 492.1C1755.26 506.767 1739.31 518.317 1719.15 526.75C1699.35 535.183 1674.96 539.4 1646 539.4Z" fill="#1C1F23"/>
<path d="M1827.42 531.7V168.7H1916.52V323.8C1934.12 317.933 1949.52 309.683 1962.72 299.05C1976.29 288.05 1987.84 275.583 1997.37 261.65C2006.9 247.717 2014.79 232.867 2021.02 217.1C2027.25 200.967 2032.02 184.833 2035.32 168.7H2135.42C2131.02 189.6 2124.6 209.4 2116.17 228.1C2108.1 246.433 2097.84 263.3 2085.37 278.7C2072.9 294.1 2058.42 307.85 2041.92 319.95C2025.42 331.683 2006.72 341.4 1985.82 349.1V353.5C2008.19 351.667 2026.7 353.133 2041.37 357.9C2056.04 362.3 2067.95 368.9 2077.12 377.7C2086.29 386.5 2093.44 396.583 2098.57 407.95C2104.07 418.95 2108.65 430.133 2112.32 441.5L2141.47 531.7H2042.47L2021.57 450.85C2018.27 437.65 2013.5 427.017 2007.27 418.95C2001.4 410.517 1993.7 404.467 1984.17 400.8C1974.64 397.133 1962.54 395.3 1947.87 395.3H1916.52V531.7H1827.42Z" fill="#1C1F23"/>
<path d="M2322.51 531.7V457.45H2416.56C2430.5 457.45 2443.33 454.517 2455.06 448.65C2467.16 442.783 2476.88 432.333 2484.21 417.3C2491.55 401.9 2495.21 379.9 2495.21 351.3C2495.21 330.767 2493.2 313.533 2489.16 299.6C2485.13 285.667 2479.26 274.667 2471.56 266.6C2464.23 258.167 2455.06 252.117 2444.06 248.45C2433.43 244.783 2421.15 242.95 2407.21 242.95H2322.51V168.7H2403.36C2446.26 168.7 2481.28 175.85 2508.41 190.15C2535.55 204.45 2555.53 224.983 2568.36 251.75C2581.2 278.15 2587.61 309.867 2587.61 346.9C2587.61 375.5 2584.31 400.25 2577.71 421.15C2571.48 442.05 2562.68 459.65 2551.31 473.95C2539.95 488.25 2527.11 499.617 2512.81 508.05C2498.51 516.483 2483.3 522.533 2467.16 526.2C2451.03 529.867 2435.08 531.7 2419.31 531.7H2322.51ZM2281.81 531.7V168.7H2370.91V531.7H2281.81Z" fill="#1C1F23"/>
<path d="M2623.42 531.7V168.7H2712.52V531.7H2623.42ZM2689.97 531.7V457.45H2883.02V531.7H2689.97ZM2689.97 382.1V315.55H2857.72V382.1H2689.97ZM2689.97 242.95V168.7H2883.02V242.95H2689.97Z" fill="#1C1F23"/>
<path d="M2986.99 428.85V357.35H3054.64C3077 357.35 3093.69 352.95 3104.69 344.15C3115.69 334.983 3121.19 319.95 3121.19 299.05C3121.19 279.25 3116.05 264.583 3105.79 255.05C3095.89 245.15 3080.67 240.2 3060.14 240.2H2986.99V168.7H3065.09C3085.99 168.7 3105.42 171.267 3123.39 176.4C3141.35 181.167 3156.94 188.867 3170.14 199.5C3183.7 210.133 3194.15 223.517 3201.49 239.65C3209.19 255.783 3213.04 275.217 3213.04 297.95C3213.04 326.917 3206.44 351.117 3193.24 370.55C3180.4 389.983 3161.7 404.65 3137.14 414.55C3112.57 424.083 3082.5 428.85 3046.94 428.85H2986.99ZM2920.44 531.7V168.7H3009.54V531.7H2920.44Z" fill="#1C1F23"/>
<path d="M3242.7 531.7V168.7H3331.8V531.7H3242.7ZM3258.1 531.7V455.8H3469.85V531.7H3258.1Z" fill="#1C1F23"/>
<path d="M3643.88 539.4C3618.21 539.4 3595.11 535.367 3574.58 527.3C3554.04 519.233 3536.63 507.317 3522.33 491.55C3508.03 475.783 3497.03 456.167 3489.33 432.7C3481.99 409.233 3478.33 382.283 3478.33 351.85C3478.33 308.583 3485.29 273.017 3499.23 245.15C3513.53 216.917 3533.33 195.833 3558.63 181.9C3584.29 167.967 3613.81 161 3647.18 161C3672.84 161 3695.76 165.033 3715.93 173.1C3736.46 180.8 3753.88 192.533 3768.18 208.3C3782.48 224.067 3793.29 243.867 3800.63 267.7C3808.33 291.167 3812.18 318.483 3812.18 349.65C3812.18 381.183 3808.14 408.867 3800.08 432.7C3792.38 456.533 3781.01 476.333 3765.98 492.1C3751.31 507.867 3733.53 519.783 3712.63 527.85C3692.09 535.55 3669.18 539.4 3643.88 539.4ZM3647.18 466.25C3663.68 466.25 3677.24 462.217 3687.88 454.15C3698.88 445.717 3706.94 433.25 3712.08 416.75C3717.58 399.883 3720.33 378.8 3720.33 353.5C3720.33 326.733 3717.39 304.55 3711.53 286.95C3706.03 269.35 3697.59 256.15 3686.23 247.35C3675.23 238.183 3661.29 233.6 3644.43 233.6C3628.29 233.6 3614.73 238 3603.73 246.8C3592.73 255.233 3584.48 268.067 3578.98 285.3C3573.48 302.533 3570.73 323.983 3570.73 349.65C3570.73 369.083 3572.19 386.133 3575.13 400.8C3578.43 415.467 3583.19 427.75 3589.43 437.65C3596.03 447.183 3604.09 454.333 3613.63 459.1C3623.16 463.867 3634.34 466.25 3647.18 466.25Z" fill="#1C1F23"/>
<path d="M3917.45 531.7V410.7L3799.2 168.7H3904.8L3962 330.4H3963.1L4019.75 168.7H4124.25L4006.55 410.7V531.7H3917.45Z" fill="#1C1F23"/>
<path d="M65.3756 405.094C20.3659 170.346 61.0325 110.385 295.781 65.3755C530.53 20.3659 590.49 61.0325 635.5 295.781C680.509 530.53 639.843 590.49 405.094 635.5C170.346 680.509 110.385 639.843 65.3756 405.094Z" fill="#1C1F23"/>
<mask id="mask0_803_39" style="mask-type:alpha" maskUnits="userSpaceOnUse" x="49" y="49" width="603" height="603">
<path d="M65.3756 405.094C20.3659 170.346 61.0325 110.385 295.781 65.3755C530.53 20.3659 590.49 61.0325 635.5 295.781C680.509 530.53 639.843 590.49 405.094 635.5C170.346 680.509 110.385 639.843 65.3756 405.094Z" fill="#0E2422"/>
</mask>
<g mask="url(#mask0_803_39)">
<path d="M570.728 218.427C572.791 216.577 571.495 213.135 568.736 213.135H471.068C468.77 213.135 467.325 210.634 468.457 208.616L553.116 57.6246C554.203 55.6859 552.914 53.2661 550.712 53.1125L361.583 50.0116C360.384 49.928 359.251 50.5749 358.705 51.6555L235.665 284.803C234.646 286.818 236.096 289.208 238.337 289.208H337.636C339.874 289.208 341.324 291.593 340.31 293.608L226.953 518.784C225.452 521.765 229.142 524.64 231.62 522.419L570.728 218.427Z" fill="white"/>
<path d="M547.086 220.23C549.037 218.342 547.713 215.017 545.009 215.017H450.757C448.595 215.017 447.143 212.779 448.007 210.779L518.102 50.5473C518.966 48.5471 517.599 46 515.438 46H328.783C327.59 46 326.425 47.0228 325.948 48.1268L222.268 286.099C221.404 288.099 222.857 290.337 225.018 290.337H322.153C324.315 290.337 325.767 292.575 324.903 294.575L226.427 522.52C225.117 525.553 228.887 528.206 231.253 525.915L547.086 220.23Z" fill="#E24C4C"/>
</g>
</svg>
